<svg width="22" height="22" viewBox="0 0 22 22" fill="none" xmlns="http://www.w3.org/2000/svg">
<path d="M11.0047 5.60937C8.02341 5.60937 5.61872 8.01406 5.61872 10.9953C5.61872 13.9766 8.02341 16.3812 11.0047 16.3812C13.9859 16.3812 16.3906 13.9766 16.3906 10.9953C16.3906 8.01406 13.9859 5.60937 11.0047 5.60937ZM11.0047 14.4969C9.0781 14.4969 7.5031 12.9266 7.5031 10.9953C7.5031 9.06406 9.07341 7.49374 11.0047 7.49374C12.9359 7.49374 14.5062 9.06406 14.5062 10.9953C14.5062 12.9266 12.9312 14.4969 11.0047 14.4969ZM17.8672 5.38906C17.8672 6.08749 17.3047 6.64531 16.6109 6.64531C15.9125 6.64531 15.3547 6.08281 15.3547 5.38906C15.3547 4.69531 15.9172 4.13281 16.6109 4.13281C17.3047 4.13281 17.8672 4.69531 17.8672 5.38906ZM21.4343 6.66406C21.3547 4.98124 20.9703 3.49062 19.7375 2.26249C18.5093 1.03437 17.0187 0.649994 15.3359 0.565619C13.6015 0.467181 8.4031 0.467181 6.66873 0.565619C4.9906 0.645306 3.49998 1.02968 2.26716 2.25781C1.03435 3.48593 0.654663 4.97656 0.570288 6.65937C0.471851 8.39374 0.471851 13.5922 0.570288 15.3266C0.649976 17.0094 1.03435 18.5 2.26716 19.7281C3.49998 20.9562 4.98591 21.3406 6.66873 21.425C8.4031 21.5234 13.6015 21.5234 15.3359 21.425C17.0187 21.3453 18.5093 20.9609 19.7375 19.7281C20.9656 18.5 21.35 17.0094 21.4343 15.3266C21.5328 13.5922 21.5328 8.39843 21.4343 6.66406ZM19.1937 17.1875C18.8281 18.1062 18.1203 18.8141 17.1968 19.1844C15.814 19.7328 12.5328 19.6062 11.0047 19.6062C9.47654 19.6062 6.1906 19.7281 4.81248 19.1844C3.89373 18.8187 3.18591 18.1109 2.8156 17.1875C2.26716 15.8047 2.39373 12.5234 2.39373 10.9953C2.39373 9.46718 2.27185 6.18124 2.8156 4.80312C3.18123 3.88437 3.88904 3.17656 4.81248 2.80624C6.19529 2.25781 9.47654 2.38437 11.0047 2.38437C12.5328 2.38437 15.8187 2.26249 17.1968 2.80624C18.1156 3.17187 18.8234 3.87968 19.1937 4.80312C19.7422 6.18593 19.6156 9.46718 19.6156 10.9953C19.6156 12.5234 19.7422 15.8094 19.1937 17.1875Z" fill="#DF3A06"/>
</svg>
