<svg width="16" height="16" viewBox="0 0 16 16" fill="none" xmlns="http://www.w3.org/2000/svg">
<path d="M14.7097 8.00508L8.74278 2.04129L8.34283 1.64134C8.2517 1.55081 8.12846 1.5 8.00001 1.5C7.87156 1.5 7.74832 1.55081 7.6572 1.64134L1.29036 8.00508C1.19699 8.09809 1.12319 8.20887 1.07333 8.33087C1.02346 8.45288 0.998548 8.58363 1.00005 8.71542C1.00623 9.25899 1.45868 9.69291 2.00225 9.69291H2.65854V14.7224H13.3415V9.69291H14.0117C14.2757 9.69291 14.5244 9.58945 14.7112 9.4026C14.8032 9.31089 14.8761 9.20184 14.9257 9.08177C14.9752 8.96169 15.0005 8.83297 15 8.70307C15 8.44055 14.8965 8.19193 14.7097 8.00508ZM8.86478 13.6106H7.13525V10.4604H8.86478V13.6106ZM12.2296 8.58107V13.6106H9.85308V10.0898C9.85308 9.74851 9.57666 9.47209 9.23539 9.47209H6.76463C6.42336 9.47209 6.14694 9.74851 6.14694 10.0898V13.6106H3.77039V8.58107H2.28793L8.00156 2.87208L8.35827 3.2288L13.7136 8.58107H12.2296Z" fill="black"/>
</svg>
