<svg width="16" height="16" viewBox="0 0 16 16" fill="none" xmlns="http://www.w3.org/2000/svg">
<path d="M13.4632 11.2884C13.0252 10.85 12.5134 10.4922 11.9512 10.2314C12.7439 9.58916 13.2497 8.60919 13.2497 7.51022C13.2497 5.57128 11.6327 3.98057 9.69379 4.01032C7.78459 4.04007 6.24639 5.59578 6.24639 7.51022C6.24639 8.60919 6.75387 9.58916 7.54485 10.2314C6.9826 10.492 6.47077 10.8498 6.0329 11.2884C5.07742 12.2456 4.53494 13.509 4.49994 14.8565C4.49947 14.8752 4.50275 14.8938 4.50958 14.9112C4.5164 14.9285 4.52664 14.9444 4.53969 14.9578C4.55273 14.9711 4.56832 14.9818 4.58554 14.989C4.60276 14.9963 4.62125 15 4.63994 15H5.61991C5.69516 15 5.75815 14.9405 5.7599 14.8653C5.79315 13.8503 6.20439 12.9001 6.92712 12.1791C7.29695 11.8073 7.73686 11.5125 8.22137 11.3119C8.70588 11.1112 9.22537 11.0087 9.74979 11.0101C10.8155 11.0101 11.8182 11.4249 12.5725 12.1791C13.2934 12.9001 13.7047 13.8503 13.7397 14.8653C13.7414 14.9405 13.8044 15 13.8797 15H14.8596C14.8783 15 14.8968 14.9963 14.914 14.989C14.9312 14.9818 14.9468 14.9711 14.9599 14.9578C14.9729 14.9444 14.9832 14.9285 14.99 14.9112C14.9968 14.8938 15.0001 14.8752 14.9996 14.8565C14.9646 13.509 14.4221 12.2456 13.4632 11.2884ZM9.74979 9.75015C9.1513 9.75015 8.58782 9.51741 8.16608 9.09392C7.95443 8.88394 7.78725 8.63348 7.6745 8.35747C7.56175 8.08147 7.50576 7.78558 7.50985 7.48747C7.5151 6.91349 7.74434 6.35875 8.14508 5.94752C8.56507 5.51703 9.1268 5.27729 9.72704 5.27029C10.3203 5.26504 10.896 5.49603 11.3195 5.91077C11.7535 6.336 11.9915 6.90474 11.9915 7.51022C11.9915 8.1087 11.7587 8.67044 11.3352 9.09392C11.1275 9.30268 10.8804 9.46817 10.6082 9.58081C10.3361 9.69345 10.0443 9.75101 9.74979 9.75015ZM5.36617 7.97221C5.35042 7.81996 5.34167 7.66597 5.34167 7.51022C5.34167 7.23198 5.36792 6.96074 5.41691 6.69649C5.42916 6.6335 5.39591 6.56875 5.33817 6.5425C5.10017 6.43575 4.88143 6.28876 4.69244 6.10326C4.46974 5.88733 4.29449 5.62735 4.17789 5.3399C4.06128 5.05246 4.00588 4.74386 4.0152 4.43381C4.03095 3.87208 4.2567 3.33834 4.65044 2.93585C5.08267 2.49312 5.66366 2.25162 6.28139 2.25862C6.83962 2.26387 7.37861 2.47912 7.78634 2.86061C7.92459 2.9901 8.04359 3.1336 8.14333 3.28759C8.17833 3.34184 8.24658 3.36459 8.30608 3.34359C8.61407 3.23684 8.93956 3.1616 9.2738 3.1266C9.3718 3.1161 9.42779 3.0111 9.38405 2.9236C8.81531 1.79839 7.65335 1.02141 6.30939 1.00041C4.36869 0.970661 2.75174 2.56136 2.75174 4.49856C2.75174 5.59753 3.25748 6.5775 4.0502 7.21973C3.49372 7.47697 2.98099 7.83221 2.5365 8.2767C1.57753 9.23392 1.03504 10.4974 1.00004 11.8466C0.999577 11.8653 1.00285 11.8839 1.00968 11.9012C1.0165 11.9186 1.02674 11.9345 1.03979 11.9479C1.05284 11.9612 1.06843 11.9719 1.08564 11.9791C1.10286 11.9864 1.12136 11.9901 1.14004 11.9901H2.12176C2.19701 11.9901 2.26001 11.9306 2.26176 11.8553C2.29501 10.8404 2.70624 9.89015 3.42897 9.16917C3.94346 8.65469 4.57344 8.2977 5.26117 8.12445C5.32942 8.10695 5.37491 8.0422 5.36617 7.97221Z" fill="black"/>
</svg>
